<?xml version="1.0" encoding="UTF-8" standalone="no"?><!DOCTYPE svg PUBLIC "-//W3C//DTD SVG 1.1//EN" "http://www.w3.org/Graphics/SVG/1.1/DTD/svg11.dtd"><svg width="100%" height="100%" viewBox="0 0 4000 4000" version="1.1" xmlns="http://www.w3.org/2000/svg" xmlns:xlink="http://www.w3.org/1999/xlink" xml:space="preserve" xmlns:serif="http://www.serif.com/" style="fill-rule:evenodd;clip-rule:evenodd;stroke-linejoin:round;stroke-miterlimit:2;"><g><path d="M2484.58,3562.06c-70.735,21.944 -142.917,39.069 -216.048,51.241l-7.475,369.587c-173.287,22.813 -348.817,22.813 -522.104,-0l-7.475,-369.587c-104.264,-17.354 -206.601,-44.775 -305.573,-81.878l-191.267,316.334c-161.478,-66.886 -313.492,-154.651 -452.156,-261.052l178.32,-323.809c-81.618,-67.162 -156.533,-142.077 -223.695,-223.695l-323.809,178.32c-106.401,-138.664 -194.166,-290.678 -261.052,-452.156l316.334,-191.267c-37.103,-98.972 -64.524,-201.309 -81.878,-305.573l-369.587,-7.475c-22.813,-173.287 -22.813,-348.817 0,-522.104l369.587,-7.475c17.354,-104.264 44.775,-206.601 81.878,-305.573l-316.334,-191.267c66.886,-161.478 154.651,-313.492 261.052,-452.156l323.809,178.32c67.162,-81.618 142.077,-156.533 223.695,-223.695l-178.32,-323.809c138.664,-106.401 290.678,-194.166 452.156,-261.052l191.267,316.334c98.972,-37.103 201.309,-64.524 305.573,-81.878l7.475,-369.587c173.287,-22.813 348.817,-22.813 522.104,0l7.475,369.587c104.264,17.354 206.601,44.775 305.573,81.878l191.267,-316.334c161.478,66.886 313.492,154.651 452.156,261.052l-178.32,323.809c81.618,67.162 156.533,142.077 223.695,223.695l323.809,-178.32c106.401,138.664 194.166,290.678 261.052,452.156l-316.334,191.267c37.103,98.972 64.524,201.309 81.878,305.573l369.587,7.475c22.813,173.287 22.813,348.817 -0,522.104l-369.587,7.475c-10.624,63.831 -25.022,126.939 -43.101,188.984l-373.498,-373.498c1.922,-27.698 2.902,-55.742 2.902,-84.013c0,-662.081 -537.525,-1199.61 -1199.61,-1199.61c-662.081,-0 -1199.61,537.525 -1199.61,1199.61c-0,662.081 537.525,1199.61 1199.61,1199.61c39.328,0 78.216,-1.896 116.521,-5.598l368.054,368.054Zm273.291,273.291l7.501,12.406c1.163,-0.482 2.325,-0.964 3.465,-1.439l-10.966,-10.967Z" style="fill:#ececec;"/><clipPath id="_clip1"><path d="M2484.58,3562.06c-70.735,21.944 -142.917,39.069 -216.048,51.241l-7.475,369.587c-173.287,22.813 -348.817,22.813 -522.104,-0l-7.475,-369.587c-104.264,-17.354 -206.601,-44.775 -305.573,-81.878l-191.267,316.334c-161.478,-66.886 -313.492,-154.651 -452.156,-261.052l178.32,-323.809c-81.618,-67.162 -156.533,-142.077 -223.695,-223.695l-323.809,178.32c-106.401,-138.664 -194.166,-290.678 -261.052,-452.156l316.334,-191.267c-37.103,-98.972 -64.524,-201.309 -81.878,-305.573l-369.587,-7.475c-22.813,-173.287 -22.813,-348.817 0,-522.104l369.587,-7.475c17.354,-104.264 44.775,-206.601 81.878,-305.573l-316.334,-191.267c66.886,-161.478 154.651,-313.492 261.052,-452.156l323.809,178.32c67.162,-81.618 142.077,-156.533 223.695,-223.695l-178.32,-323.809c138.664,-106.401 290.678,-194.166 452.156,-261.052l191.267,316.334c98.972,-37.103 201.309,-64.524 305.573,-81.878l7.475,-369.587c173.287,-22.813 348.817,-22.813 522.104,0l7.475,369.587c104.264,17.354 206.601,44.775 305.573,81.878l191.267,-316.334c161.478,66.886 313.492,154.651 452.156,261.052l-178.32,323.809c81.618,67.162 156.533,142.077 223.695,223.695l323.809,-178.32c106.401,138.664 194.166,290.678 261.052,452.156l-316.334,191.267c37.103,98.972 64.524,201.309 81.878,305.573l369.587,7.475c22.813,173.287 22.813,348.817 -0,522.104l-369.587,7.475c-10.624,63.831 -25.022,126.939 -43.101,188.984l-373.498,-373.498c1.922,-27.698 2.902,-55.742 2.902,-84.013c0,-662.081 -537.525,-1199.61 -1199.61,-1199.61c-662.081,-0 -1199.61,537.525 -1199.61,1199.61c-0,662.081 537.525,1199.61 1199.61,1199.61c39.328,0 78.216,-1.896 116.521,-5.598l368.054,368.054Zm273.291,273.291l7.501,12.406c1.163,-0.482 2.325,-0.964 3.465,-1.439l-10.966,-10.967Z"/></clipPath><g clip-path="url(#_clip1)"><rect x="-201.236" y="-201.236" width="4402.47" height="4402.47" style="fill:url(#_Linear2);"/></g><path d="M1638.88,1211.46c88.636,-34.338 184.946,-53.17 285.62,-53.17c436.953,0 791.703,354.75 791.703,791.703c-0,50.337 -4.708,99.583 -13.697,147.263l1204.8,1204.8c123.597,123.597 123.597,324.287 0,447.884l-157.365,157.365c-123.597,123.597 -324.287,123.597 -447.884,0l-1188.39,-1188.39c-60.609,14.885 -123.973,22.782 -189.166,22.782c-436.953,-0 -791.703,-354.75 -791.703,-791.703c0,-112.21 23.395,-218.998 65.566,-315.746l440.948,440.948c36.786,36.786 96.516,36.786 133.302,0l298.35,-298.35c36.786,-36.786 36.786,-96.516 0,-133.302l-432.083,-432.083Z" style="fill:#ececec;"/><clipPath id="_clip3"><path d="M1638.88,1211.46c88.636,-34.338 184.946,-53.17 285.62,-53.17c436.953,0 791.703,354.75 791.703,791.703c-0,50.337 -4.708,99.583 -13.697,147.263l1204.8,1204.8c123.597,123.597 123.597,324.287 0,447.884l-157.365,157.365c-123.597,123.597 -324.287,123.597 -447.884,0l-1188.39,-1188.39c-60.609,14.885 -123.973,22.782 -189.166,22.782c-436.953,-0 -791.703,-354.75 -791.703,-791.703c0,-112.21 23.395,-218.998 65.566,-315.746l440.948,440.948c36.786,36.786 96.516,36.786 133.302,0l298.35,-298.35c36.786,-36.786 36.786,-96.516 0,-133.302l-432.083,-432.083Z"/></clipPath><g clip-path="url(#_clip3)"><rect x="-201.236" y="-201.236" width="4402.47" height="4402.47" style="fill:url(#_Linear4);"/></g></g><defs><linearGradient id="_Linear2" x1="0" y1="0" x2="1" y2="0" gradientUnits="userSpaceOnUse" gradientTransform="matrix(4402.47,0,0,4402.47,-201.236,2000)"><stop offset="0" style="stop-color:#749992;stop-opacity:1"/><stop offset="1" style="stop-color:#588fcd;stop-opacity:1"/></linearGradient><linearGradient id="_Linear4" x1="0" y1="0" x2="1" y2="0" gradientUnits="userSpaceOnUse" gradientTransform="matrix(4402.47,0,0,4402.47,-201.236,2000)"><stop offset="0" style="stop-color:#749992;stop-opacity:1"/><stop offset="1" style="stop-color:#588fcd;stop-opacity:1"/></linearGradient></defs></svg>