<?xml version="1.0" encoding="UTF-8" standalone="no"?><!DOCTYPE svg PUBLIC "-//W3C//DTD SVG 1.1//EN" "http://www.w3.org/Graphics/SVG/1.1/DTD/svg11.dtd"><svg width="100%" height="100%" viewBox="0 0 968 720" version="1.1" xmlns="http://www.w3.org/2000/svg" xmlns:xlink="http://www.w3.org/1999/xlink" xml:space="preserve" xmlns:serif="http://www.serif.com/" style="fill-rule:evenodd;clip-rule:evenodd;stroke-linejoin:round;stroke-miterlimit:2;"><g><g><path d="M535.978,382.084c-7.587,2.354 -15.33,4.191 -23.174,5.497l-0.802,39.643c-18.588,2.447 -37.416,2.447 -56.004,0l-0.802,-39.643c-11.183,-1.862 -22.161,-4.803 -32.777,-8.783l-20.516,33.932c-17.321,-7.175 -33.627,-16.589 -48.5,-28.002l19.127,-34.734c-8.755,-7.204 -16.791,-15.239 -23.995,-23.994l-34.733,19.127c-11.413,-14.873 -20.827,-31.179 -28.002,-48.5l33.932,-20.516c-3.98,-10.617 -6.921,-21.594 -8.783,-32.778l-39.644,-0.801c-2.447,-18.588 -2.447,-37.416 0,-56.004l39.644,-0.802c1.862,-11.184 4.803,-22.161 8.783,-32.777l-33.932,-20.516c7.175,-17.321 16.589,-33.627 28.002,-48.501l34.733,19.128c7.204,-8.755 15.24,-16.791 23.995,-23.995l-19.127,-34.733c14.873,-11.413 31.179,-20.827 48.5,-28.002l20.516,33.932c10.616,-3.98 21.594,-6.921 32.777,-8.783l0.802,-39.644c18.588,-2.447 37.416,-2.447 56.004,0l0.802,39.644c11.183,1.862 22.161,4.803 32.777,8.783l20.516,-33.932c17.321,7.175 33.627,16.589 48.5,28.002l-19.127,34.733c8.755,7.204 16.791,15.24 23.995,23.995l34.733,-19.128c11.413,14.874 20.827,31.18 28.002,48.501l-33.932,20.516c3.98,10.616 6.921,21.593 8.783,32.777l39.644,0.802c2.447,18.588 2.447,37.416 -0,56.004l-39.644,0.801c-1.14,6.847 -2.684,13.616 -4.623,20.272l-40.064,-40.064c0.207,-2.971 0.312,-5.979 0.312,-9.011c-0,-71.018 -57.658,-128.676 -128.676,-128.676c-71.018,0 -128.676,57.658 -128.676,128.676c0,71.018 57.658,128.676 128.676,128.676c4.218,-0 8.39,-0.204 12.499,-0.601l39.479,39.479Zm29.314,29.315l0.805,1.331c0.125,-0.052 0.249,-0.104 0.372,-0.155l-1.177,-1.176Z" style="fill:#ececec;"/><clipPath id="_clip1"><path d="M535.978,382.084c-7.587,2.354 -15.33,4.191 -23.174,5.497l-0.802,39.643c-18.588,2.447 -37.416,2.447 -56.004,0l-0.802,-39.643c-11.183,-1.862 -22.161,-4.803 -32.777,-8.783l-20.516,33.932c-17.321,-7.175 -33.627,-16.589 -48.5,-28.002l19.127,-34.734c-8.755,-7.204 -16.791,-15.239 -23.995,-23.994l-34.733,19.127c-11.413,-14.873 -20.827,-31.179 -28.002,-48.5l33.932,-20.516c-3.98,-10.617 -6.921,-21.594 -8.783,-32.778l-39.644,-0.801c-2.447,-18.588 -2.447,-37.416 0,-56.004l39.644,-0.802c1.862,-11.184 4.803,-22.161 8.783,-32.777l-33.932,-20.516c7.175,-17.321 16.589,-33.627 28.002,-48.501l34.733,19.128c7.204,-8.755 15.24,-16.791 23.995,-23.995l-19.127,-34.733c14.873,-11.413 31.179,-20.827 48.5,-28.002l20.516,33.932c10.616,-3.98 21.594,-6.921 32.777,-8.783l0.802,-39.644c18.588,-2.447 37.416,-2.447 56.004,0l0.802,39.644c11.183,1.862 22.161,4.803 32.777,8.783l20.516,-33.932c17.321,7.175 33.627,16.589 48.5,28.002l-19.127,34.733c8.755,7.204 16.791,15.24 23.995,23.995l34.733,-19.128c11.413,14.874 20.827,31.18 28.002,48.501l-33.932,20.516c3.98,10.616 6.921,21.593 8.783,32.777l39.644,0.802c2.447,18.588 2.447,37.416 -0,56.004l-39.644,0.801c-1.14,6.847 -2.684,13.616 -4.623,20.272l-40.064,-40.064c0.207,-2.971 0.312,-5.979 0.312,-9.011c-0,-71.018 -57.658,-128.676 -128.676,-128.676c-71.018,0 -128.676,57.658 -128.676,128.676c0,71.018 57.658,128.676 128.676,128.676c4.218,-0 8.39,-0.204 12.499,-0.601l39.479,39.479Zm29.314,29.315l0.805,1.331c0.125,-0.052 0.249,-0.104 0.372,-0.155l-1.177,-1.176Z"/></clipPath><g clip-path="url(#_clip1)"><rect x="247.885" y="-21.586" width="472.231" height="472.231" style="fill:url(#_Linear2);"/></g><path d="M445.264,129.947c9.508,-3.683 19.839,-5.703 30.637,-5.703c46.87,-0 84.922,38.052 84.922,84.922c0,5.399 -0.505,10.682 -1.469,15.796l129.233,129.232c13.257,13.258 13.257,34.785 -0,48.043l-16.88,16.879c-13.258,13.258 -34.785,13.258 -48.042,0l-127.473,-127.472c-6.501,1.597 -13.298,2.444 -20.291,2.444c-46.869,-0 -84.922,-38.052 -84.922,-84.922c0,-12.036 2.51,-23.491 7.033,-33.869l47.299,47.299c3.945,3.945 10.352,3.945 14.298,-0l32.003,-32.003c3.946,-3.946 3.946,-10.353 -0,-14.298l-46.348,-46.348Z" style="fill:#ececec;"/><clipPath id="_clip3"><path d="M445.264,129.947c9.508,-3.683 19.839,-5.703 30.637,-5.703c46.87,-0 84.922,38.052 84.922,84.922c0,5.399 -0.505,10.682 -1.469,15.796l129.233,129.232c13.257,13.258 13.257,34.785 -0,48.043l-16.88,16.879c-13.258,13.258 -34.785,13.258 -48.042,0l-127.473,-127.472c-6.501,1.597 -13.298,2.444 -20.291,2.444c-46.869,-0 -84.922,-38.052 -84.922,-84.922c0,-12.036 2.51,-23.491 7.033,-33.869l47.299,47.299c3.945,3.945 10.352,3.945 14.298,-0l32.003,-32.003c3.946,-3.946 3.946,-10.353 -0,-14.298l-46.348,-46.348Z"/></clipPath><g clip-path="url(#_clip3)"><rect x="247.885" y="-21.586" width="472.231" height="472.231" style="fill:url(#_Linear4);"/></g></g><g><g transform="matrix(0.537136,0,0,0.537136,-168.959,307.82)"><clipPath id="_clip5"><path d="M314.555,398.017l-0,205.332l76.849,-0c41.199,0.29 79.751,-20.29 79.751,-67.556l-0,-69.059c-0,-47.848 -38.552,-68.717 -79.751,-68.717l-76.849,0Zm52.176,156.636l-0,-108.231l26.414,0c17.417,0 25.834,8.415 25.834,21.762l0,64.127c0,13.347 -8.127,22.342 -25.834,22.342l-26.414,0Zm184.193,-156.636l-51.886,0l-0,205.332l51.886,-0l-0,-205.332Zm22.661,171.131c19.132,24.638 45.22,37.101 69.883,37.101c37.727,0 79.466,-21.739 81.206,-61.462c2.32,-50.487 -34.204,-63.254 -70.755,-69.927c-15.966,-3.482 -26.707,-9.285 -27.288,-19.151c0.871,-23.786 37.738,-24.655 59.201,-1.741l33.914,-26.102c-21.16,-25.794 -45.218,-32.75 -70.182,-32.75c-37.716,0 -74.239,21.157 -74.239,61.464c0,39.171 30.146,60.062 63.208,65.285c16.837,2.321 35.705,8.995 35.125,20.601c-1.451,22.045 -46.737,20.885 -67.317,-4.062l-32.756,30.744Zm278.138,-29.874c-11.312,28.425 -57.723,21.469 -57.723,-3.192l-0,-70.799c-0,-25.53 45.831,-31.327 59.754,-5.803l42.35,-17.118c-16.534,-36.521 -46.991,-47.246 -72.227,-47.246c-41.182,0 -81.763,23.768 -81.763,70.167l0,70.799c0,46.689 40.581,70.167 80.893,70.167c25.816,0 56.853,-12.753 73.967,-46.086l-45.251,-20.889Zm59.21,-3.482c0,46.979 42.61,70.457 85.262,70.457c42.651,0 84.972,-23.478 84.972,-70.457l-0,-70.219c-0,-46.979 -42.611,-70.457 -85.262,-70.457c-42.652,0 -84.972,23.188 -84.972,70.457l0,70.219Zm51.886,-70.219c0,-15.088 16.253,-23.212 32.506,-23.212c16.833,0 33.956,7.253 33.956,23.212l-0,70.219c-0,14.798 -16.543,22.342 -33.086,22.342c-16.543,0 -33.376,-7.254 -33.376,-22.342l0,-70.219Zm255.294,137.776l64.65,-0l-55.954,-70.483c24.928,-7.825 40.291,-29.273 40.291,-67.285c-1.16,-48.144 -33.914,-67.564 -76.268,-67.564l-82.073,0l0,205.332l52.466,-0l0,-65.266l9.288,0l47.6,65.266Zm-56.888,-109.9l0,-47.027l30.477,0c32.788,0 32.788,47.027 0,47.027l-30.477,0Zm134.918,-95.432l-0,205.332l76.849,-0c41.199,0.29 79.751,-20.29 79.751,-67.556l-0,-69.059c-0,-47.848 -38.552,-68.717 -79.751,-68.717l-76.849,0Zm52.176,156.636l-0,-108.231l26.414,0c17.417,0 25.834,8.415 25.834,21.762l0,64.127c0,13.347 -8.127,22.342 -25.834,22.342l-26.414,0Zm236.405,-156.636l-52.466,0l-0,136.622c-0.29,96.266 163.562,96.266 163.851,-0l0,-136.622l-52.466,0l0,136.622c-0.29,33.061 -58.919,33.061 -58.919,-0l-0,-136.622Zm291.517,48.985l0,-49.275l-161.531,0l-0,49.275l54.533,0l-0,156.347l52.466,-0l-0,-156.347l54.532,0Zm72.227,-48.985l-51.886,0l0,205.332l51.886,-0l0,-205.332Zm32.524,205.332l135.715,-0l0,-51.306l-83.539,-0l-0,-154.026l-52.176,0l-0,205.332Z" clip-rule="nonzero"/></clipPath><g clip-path="url(#_clip5)"><text x="298.293px" y="603.367px" style="font-family:'UniSansHeavyCAPS', 'Uni Sans';font-weight:900;font-size:290.067px;">Discord util</text><g transform="matrix(3.50055,0,0,2.25225,-3251.18,-4647.88)"><rect x="780.259" y="1742.99" width="940.071" height="822.562" style="fill:url(#_Linear6);"/></g></g></g></g></g><defs><linearGradient id="_Linear2" x1="0" y1="0" x2="1" y2="0" gradientUnits="userSpaceOnUse" gradientTransform="matrix(472.231,0,0,472.231,247.885,214.53)"><stop offset="0" style="stop-color:#749992;stop-opacity:1"/><stop offset="1" style="stop-color:#588fcd;stop-opacity:1"/></linearGradient><linearGradient id="_Linear4" x1="0" y1="0" x2="1" y2="0" gradientUnits="userSpaceOnUse" gradientTransform="matrix(472.231,0,0,472.231,247.885,214.53)"><stop offset="0" style="stop-color:#749992;stop-opacity:1"/><stop offset="1" style="stop-color:#588fcd;stop-opacity:1"/></linearGradient><linearGradient id="_Linear6" x1="0" y1="0" x2="1" y2="0" gradientUnits="userSpaceOnUse" gradientTransform="matrix(940.071,0,0,822.562,780.259,2154.27)"><stop offset="0" style="stop-color:#749992;stop-opacity:1"/><stop offset="1" style="stop-color:#588fcd;stop-opacity:1"/></linearGradient></defs></svg>